<svg xmlns="http://www.w3.org/2000/svg" viewBox="10 8 546 567" fill="currentColor" fill-rule="evenodd" role="img" aria-label="JHKFIT logo">
  <path d="M 403,152 L 268,295 L 266,104 L 267,103 L 244,127 L 243,378 L 241,385 L 233,399 L 176,459 L 208,459 L 255,409 L 262,395 L 266,380 L 267,321 L 301,286 L 303,287 L 303,465 L 327,442 L 328,285 L 403,362 L 403,330 L 333,258 L 342,247 L 403,184 Z M 327,24 L 303,51 L 303,225 L 327,199 Z"/>
  <path d="M 502,521 L 502,526 L 515,526 L 519,528 L 519,560 L 520,561 L 524,561 L 525,560 L 525,527 L 526,526 L 541,526 L 542,527 L 542,521 Z M 436,521 L 436,561 L 441,561 L 441,521 Z M 375,521 L 346,521 L 341,523 L 337,527 L 337,529 L 336,530 L 336,560 L 337,561 L 341,561 L 341,547 L 342,546 L 341,545 L 343,543 L 373,543 L 373,538 L 343,538 L 341,536 L 342,530 L 347,526 L 375,526 Z M 230,522 L 231,523 L 231,561 L 236,561 L 236,549 L 242,545 L 246,541 L 247,541 L 252,546 L 252,547 L 265,561 L 273,561 L 252,538 L 253,536 L 254,536 L 268,524 L 272,522 L 272,521 L 264,521 L 238,542 L 236,541 L 236,521 L 231,521 Z M 123,521 L 123,561 L 128,561 L 128,544 L 129,543 L 157,543 L 159,545 L 159,559 L 158,560 L 159,561 L 164,561 L 164,521 L 159,521 L 158,522 L 159,523 L 159,534 L 158,535 L 159,536 L 157,538 L 129,538 L 128,537 L 128,521 Z M 51,521 L 46,521 L 46,547 L 45,548 L 45,550 L 39,555 L 24,555 L 24,560 L 25,561 L 39,561 L 40,560 L 43,560 L 45,559 L 50,553 L 50,551 L 51,550 Z"/>
</svg>
